<?xml version="1.0" encoding="utf-8"?>
<!-- Generator: Adobe Illustrator 26.3.1, SVG Export Plug-In . SVG Version: 6.00 Build 0)  -->
<svg version="1.1" id="Layer_1" xmlns="http://www.w3.org/2000/svg" xmlns:xlink="http://www.w3.org/1999/xlink" x="0px" y="0px"
	 viewBox="0 0 1280 780" style="enable-background:new 0 0 1280 780;" xml:space="preserve">
<style type="text/css">
	.st0{fill-rule:evenodd;clip-rule:evenodd;fill:#FFFFFF;}
	.st1{fill:#FFFFFF;}
</style>
<g>
	<g>
		<g>
			<path class="st0" d="M279.75,564.05h24.02l-9.03-29.23c-0.27-0.89-0.66-2.31-1.13-4.29c-0.5-1.96-1.12-4.51-1.88-7.62
				c-0.51,2.19-1.03,4.25-1.55,6.23c-0.49,1.99-1.01,3.86-1.53,5.68L279.75,564.05z M245.92,597.15l30.57-88.58h30.26l30.61,88.58
				h-24.02l-4.48-15.86h-34.3l-4.61,15.86H245.92z M346.99,508.57h24.08v43.09c0,6.34,0.16,10.89,0.47,13.65
				c0.33,2.75,0.87,5.06,1.65,6.92c0.91,2.25,2.54,3.99,4.84,5.18c2.29,1.18,5.1,1.78,8.41,1.78c3.3,0,6.09-0.6,8.38-1.78
				c2.27-1.2,3.9-2.93,4.85-5.18c0.78-1.86,1.33-4.17,1.65-6.92c0.31-2.77,0.47-7.31,0.47-13.65v-6.05v-37.04h24.02v46.85
				c0,9.71-0.58,16.87-1.76,21.5c-1.18,4.63-3.14,8.55-5.93,11.84c-3.01,3.57-7.19,6.28-12.45,8.07c-5.29,1.8-11.71,2.68-19.24,2.68
				c-7.58,0-14-0.89-19.27-2.68c-5.27-1.8-9.44-4.5-12.5-8.07c-2.75-3.29-4.71-7.21-5.9-11.84c-1.18-4.63-1.78-11.8-1.78-21.5v-9.21
				V508.57z M460.8,597.15v-67.64h-19.85v-20.95h63.84v20.95h-19.85v67.64H460.8z M609.23,553.04c0,6.38-1.18,12.35-3.51,17.91
				c-2.33,5.57-5.74,10.55-10.22,14.95c-4.53,4.36-9.69,7.7-15.49,10.08c-5.81,2.36-11.84,3.53-18.09,3.53
				c-6.34,0-12.39-1.18-18.17-3.53c-5.8-2.38-10.88-5.72-15.28-10.08c-4.56-4.4-8.01-9.4-10.39-15.01
				c-2.35-5.6-3.53-11.55-3.53-17.85c0-6.34,1.18-12.29,3.53-17.89c2.38-5.57,5.82-10.57,10.39-14.97c4.4-4.36,9.48-7.7,15.28-10.08
				c5.78-2.35,11.84-3.53,18.17-3.53c6.3,0,12.35,1.18,18.18,3.53c5.84,2.38,10.96,5.72,15.41,10.08c4.44,4.36,7.82,9.34,10.2,14.95
				C608.06,540.73,609.23,546.7,609.23,553.04 M561.92,579.06c6.69,0,12.23-2.46,16.61-7.37c4.38-4.94,6.57-11.16,6.57-18.65
				c0-7.41-2.21-13.61-6.65-18.59c-4.44-4.96-9.95-7.43-16.52-7.43c-6.69,0-12.23,2.48-16.6,7.41c-4.38,4.94-6.57,11.16-6.57,18.61
				c0,7.58,2.15,13.82,6.46,18.69C549.52,576.62,555.1,579.06,561.92,579.06 M670.34,564.52v-18.57h47.44
				c0.04,0.6,0.08,1.28,0.1,2.01s0.02,1.79,0.02,3.2c0,15.26-4.03,27.1-12.07,35.5c-8.05,8.41-19.37,12.62-33.97,12.62
				c-7.19,0-13.57-1.08-19.15-3.24c-5.6-2.15-10.6-5.45-14.98-9.89c-4.21-4.24-7.45-9.25-9.79-15.04
				c-2.31-5.78-3.47-11.85-3.47-18.19c0-6.61,1.14-12.68,3.39-18.24c2.25-5.56,5.62-10.53,10.1-14.97
				c4.44-4.32,9.54-7.58,15.28-9.81c5.74-2.21,11.94-3.33,18.61-3.33c8.67,0,16.33,1.71,23.01,5.14c6.67,3.43,12.28,8.53,16.85,15.3
				l-20.94,10.04c-2.5-3.43-5.31-5.97-8.43-7.64c-3.14-1.67-6.63-2.52-10.49-2.52c-7.23,0-12.91,2.42-17.06,7.23
				c-4.15,4.83-6.24,11.42-6.24,19.77c0,8.43,2.09,15.08,6.24,19.91c4.15,4.85,9.83,7.27,17.06,7.27c6.11,0,11.23-1.51,15.32-4.52
				c4.09-2.99,6.48-7,7.16-12.02H670.34z M736.57,597.15v-88.59h24.15v67.89h30.01v20.7H736.57z M829.81,564.05h24.02l-9.02-29.23
				c-0.27-0.89-0.66-2.31-1.14-4.29c-0.5-1.96-1.11-4.51-1.88-7.62c-0.52,2.19-1.03,4.25-1.55,6.23c-0.5,1.99-1.01,3.86-1.53,5.68
				L829.81,564.05z M795.99,597.15l30.57-88.59h30.26l30.61,88.59h-24.02l-4.48-15.86h-34.3l-4.6,15.86H795.99z M903.68,568.53
				c3.59,4.07,7.14,7.13,10.64,9.13c3.49,2.02,6.96,3.04,10.43,3.04c3.22,0,5.89-0.87,7.95-2.6c2.09-1.73,3.12-3.92,3.12-6.59
				c0-2.95-0.89-5.22-2.69-6.82c-1.8-1.59-5.86-3.24-12.19-4.94c-8.67-2.33-14.8-5.39-18.4-9.13c-3.59-3.76-5.39-8.9-5.39-15.43
				c0-8.46,2.83-15.38,8.51-20.74c5.66-5.35,13.01-8.01,22.04-8.01c4.89,0,9.52,0.66,13.9,1.96c4.38,1.33,8.51,3.31,12.43,5.97
				l-7.56,17.37c-2.74-2.33-5.56-4.11-8.45-5.31c-2.89-1.18-5.74-1.78-8.55-1.78c-2.91,0-5.27,0.7-7.09,2.09
				c-1.81,1.38-2.72,3.18-2.72,5.35c0,2.23,0.8,4.01,2.39,5.33c1.59,1.35,4.67,2.6,9.21,3.82l1.09,0.31
				c9.85,2.65,16.32,5.58,19.42,8.76c2.11,2.19,3.7,4.79,4.79,7.85c1.09,3.04,1.63,6.42,1.63,10.12c0,9.4-3.08,16.96-9.25,22.66
				c-6.18,5.72-14.39,8.57-24.68,8.57c-6.18,0-11.79-1.05-16.85-3.14c-5.06-2.11-9.93-5.39-14.62-9.88L903.68,568.53z
				 M979.56,568.53c3.59,4.07,7.14,7.13,10.64,9.13c3.49,2.02,6.96,3.04,10.43,3.04c3.22,0,5.89-0.87,7.95-2.6
				c2.09-1.73,3.12-3.92,3.12-6.59c0-2.95-0.89-5.22-2.69-6.82c-1.8-1.59-5.86-3.24-12.19-4.94c-8.68-2.33-14.81-5.39-18.4-9.13
				c-3.59-3.76-5.39-8.9-5.39-15.43c0-8.46,2.83-15.38,8.51-20.74c5.66-5.35,13.01-8.01,22.04-8.01c4.89,0,9.52,0.66,13.9,1.96
				c4.38,1.33,8.51,3.31,12.43,5.97l-7.56,17.37c-2.75-2.33-5.56-4.11-8.45-5.31c-2.89-1.18-5.74-1.78-8.55-1.78
				c-2.91,0-5.27,0.7-7.09,2.09c-1.81,1.38-2.72,3.18-2.72,5.35c0,2.23,0.81,4.01,2.4,5.33c1.59,1.35,4.67,2.6,9.21,3.82l1.09,0.31
				c9.85,2.65,16.32,5.58,19.42,8.76c2.1,2.19,3.7,4.79,4.79,7.85c1.09,3.04,1.63,6.42,1.63,10.12c0,9.4-3.08,16.96-9.25,22.66
				c-6.18,5.72-14.4,8.57-24.68,8.57c-6.18,0-11.79-1.05-16.85-3.14c-5.06-2.11-9.93-5.39-14.62-9.88L979.56,568.53z"/>
			<path class="st1" d="M1098.74,437.26l-88.42-159.88c-20.7-39.66-59.23-68.51-104.97-75.9l-0.01-0.01c0,0-0.54-0.08-0.61-0.09
				C818.5,187.66,730.09,180.49,640,180.49c-21.88,0-43.65,0.46-65.33,1.3c-67.57,2.61-134.11,9.2-199.4,19.58
				c-0.07,0.01-0.61,0.09-0.61,0.09l-0.01,0.01c-45.74,7.39-84.27,36.24-104.97,75.9l-88.42,159.88
				c-3.08,5.11-4.89,11.08-4.89,17.49c0,18.76,15.2,33.96,33.96,33.96h0.01h147.46l47.87-108.9h59.59h27.8l-30.88,108.9h607.48h0.01
				c18.75,0,33.96-15.2,33.96-33.96C1103.63,448.34,1101.82,442.37,1098.74,437.26 M511.9,313.37h-9.93h-67.09l38.94-88.58h63.19
				l-14.65,51.68L511.9,313.37z"/>
		</g>
	</g>
</g>
</svg>
